HIERARCHY
ROOT pelvis
{
  OFFSET 0 100 0
  CHANNELS 6 Xposition Yposition Zposition Zrotation Xrotation Yrotation
  JOINT pelvis_right_femur
  {
    OFFSET -10.78128 -3.44521 -0.5502486
    CHANNELS 3 Zrotation Xrotation Yrotation
    JOINT right_femur_tibia
    {
      OFFSET -0.8047443 -44.0398 -0.1307829
      CHANNELS 3 Zrotation Xrotation Yrotation
      JOINT right_tibia_foot
      {
        OFFSET 3.006224 -47.83518 -5
        CHANNELS 3 Zrotation Xrotation Yrotation
        End Site
        {
          OFFSET 0 -5 15
        }
      }
    }
  }
  JOINT pelvis_left_femur
  {
    OFFSET 10.78128 -3.44521 -0.5502486
    CHANNELS 3 Zrotation Xrotation Yrotation
    JOINT left_femur_tibia
    {
      OFFSET 0.8047443 -44.0398 -0.1307829
      CHANNELS 3 Zrotation Xrotation Yrotation
      JOINT left_tibia_foot
      {
        OFFSET -4.370144 -48.10324 -4.275266
        CHANNELS 3 Zrotation Xrotation Yrotation
        End Site
        {
          OFFSET 0 -5 15
        }
      }
    }
  }
  JOINT pelvis_spine1
  {
    OFFSET 0 6.468898 -3.129235
    CHANNELS 3 Zrotation Xrotation Yrotation
    JOINT spine1
    {
      OFFSET 0 23.15396 4.99043
      CHANNELS 3 Zrotation Xrotation Yrotation
      JOINT spine2
      {
        OFFSET 0 20.79997 -5.064912
        CHANNELS 3 Zrotation Xrotation Yrotation
        JOINT neck
        {
          OFFSET 0 14.38658 9.616178
          CHANNELS 3 Zrotation Xrotation Yrotation
          End Site
          {
            OFFSET 0 20 0
          }
        }
      }
      JOINT right_manubrium
      {
        OFFSET -5.722621 16.35077 3.967754
        CHANNELS 3 Zrotation Xrotation Yrotation
        JOINT right_clavicle
        {
          OFFSET -13.16364 1.694482 -4.693211
          CHANNELS 3 Zrotation Xrotation Yrotation
          JOINT right_humerus
          {
            OFFSET -28.5034 -0.3100689 -2.792744
            CHANNELS 3 Zrotation Xrotation Yrotation
            JOINT right_radius
            {
              OFFSET -25.15693 0.02248979 -1.271978
              CHANNELS 3 Zrotation Xrotation Yrotation
              End Site
              {
                OFFSET -15 0 0
              }
            }
          }
        }
      }
      JOINT left_manubrium
      {
        OFFSET 5.722621 16.35077 3.967754
        CHANNELS 3 Zrotation Xrotation Yrotation
        JOINT left_clavicle
        {
          OFFSET 13.16364 1.694482 -4.693211
          CHANNELS 3 Zrotation Xrotation Yrotation
          JOINT left_humerus
          {
            OFFSET 29.39168 -1.063119 -2.237045
            CHANNELS 3 Zrotation Xrotation Yrotation
            JOINT left_radius
            {
              OFFSET 24.59957 -0.9528479 0.9047498
              CHANNELS 3 Zrotation Xrotation Yrotation
              End Site
              {
                OFFSET 15 -0 -0
              }
            }
          }
        }
      }
    }
  }
}
MOTION
Frames: 11
Frame Time: 0.0416666666667
2303.498 -7.342357 1129.05 11.28949 -0.06158895 86.32201 2.85523 -16.34715 4.288647 -0 22.04396 -0 -1.173661 -9.256928 -11.71611 -3.443006 19.40688 -8.814056 -0 34.03153 -0 -11.2041 -15.23625 15.47119 -0.9156198 1.369548 1.372498 0.5876756 7.241618 -6.441428 4.050491 24.62953 3.506404 0.4660864 -13.9804 8.569074 -1.766 -11.64104 7.805421 92.63715 17.95667 -20.49304 -0 0 7.779405 -16.00868 9.818547 4.259092 6.747143 -18.64301 -3.469913 -81.466 26.62341 0.1406693 0 0 -19.44392 2.477404 8.869623 9.15815
2310.254 -6.953436 1130.372 12.88325 -0.3385027 86.15993 3.477842 -12.23968 4.961122 -0 25.3333 -0 -1.331548 -10.80338 -11.87648 -3.094686 17.40515 -8.899541 -0 39.09849 -0 -11.91961 -13.42368 16.67317 -0.4642698 1.710387 1.493733 0.3046877 7.11078 -5.680686 4.472387 25.36991 2.901545 0.09474845 -13.01248 8.579894 -2.223302 -11.69164 7.727793 92.60309 16.37351 -19.0204 -0 0 8.394916 -15.70463 9.25271 3.849434 6.233398 -17.45859 -3.493843 -82.66085 27.40886 1.299178 0 0 -16.91754 1.855406 9.441658 9.783747
2316.841 -6.242758 1131.645 14.15939 -0.4251574 85.87077 3.673777 -7.982542 5.311883 -0 28.37672 -0 -1.584867 -12.312 -11.84072 -2.935157 14.28868 -8.938343 -0 42.82899 -0 -12.07971 -12.01428 17.70162 -0.3243101 2.079446 1.807316 0.0314156 6.94799 -4.853891 4.864956 26.0989 2.269917 -0.2420579 -12.00858 8.476304 -2.413577 -11.87675 7.785191 92.14894 15.27583 -17.16262 -0 0 9.274345 -15.56634 8.744869 3.818211 5.622869 -16.33174 -3.564054 -83.91637 28.11617 2.785246 0 0 -14.52683 0.9556733 10.17765 10.73082
2323.202 -5.342326 1132.807 14.88819 -0.3569169 85.51515 3.543034 -4.067791 5.372485 -0 30.97398 -0 -1.864349 -13.49124 -11.59003 -2.921755 10.3545 -8.910128 -0 44.79161 -0 -11.6088 -11.02986 18.44976 -0.4866291 2.374686 2.263405 -0.1866103 6.813798 -4.090826 5.149839 26.6882 1.708947 -0.4690031 -11.12515 8.23073 -2.230626 -12.1913 8.007414 91.23138 14.88702 -15.11095 -0 0 10.30033 -15.67179 8.426901 4.218716 4.98848 -15.42439 -3.671655 -85.12482 28.57597 4.506807 0 0 -12.4947 -0.0794 11.01076 11.88052
2329.333 -4.356998 1133.818 14.92648 -0.18921 85.15066 3.225432 -0.992187 5.20532 -0 33.02105 -0 -2.118359 -14.0611 -11.14426 -3.005445 6.155429 -8.82934 -0 44.9547 -0 -10.5321 -10.42113 18.86934 -0.8990366 2.510531 2.768674 -0.2968258 6.763131 -3.521042 5.26512 27.04024 1.316127 -0.5275362 -10.51666 7.850845 -1.624081 -12.57645 8.390477 89.88277 15.34371 -13.11193 -0 0 11.27455 -16.0304 8.384864 5.029362 4.387002 -14.84878 -3.807907 -86.17028 28.69539 6.313351 0 0 -10.97879 -1.090703 11.84841 13.0833
2335.264 -3.355166 1134.664 14.34853 0.01257442 84.82425 2.856953 0.917831 4.883673 -0 34.5644 -0 -2.338796 -13.8364 -10.59101 -3.149092 2.403712 -8.739559 -0 43.66214 -0 -9.025631 -10.12582 19.00931 -1.459411 2.468948 3.201015 -0.2782972 6.818729 -3.211918 5.206795 27.14271 1.138584 -0.4149284 -10.26284 7.397752 -0.6945834 -12.94428 8.876641 88.30862 16.52242 -11.40063 -0 0 11.98387 -16.58411 8.590669 6.124834 3.867422 -14.62179 -3.969616 -86.97652 28.49693 8.014764 0 0 -9.987807 -1.932417 12.61499 14.17387
2341.04 -2.375644 1135.369 13.43071 0.1847077 84.56901 2.540619 1.580262 4.474041 -0 35.7754 -0 -2.577261 -12.79891 -10.05914 -3.330775 -0.2697725 -8.698022 -0 41.47549 -0 -7.361041 -10.09885 18.97594 -2.035358 2.312237 3.448887 -0.1561246 6.959178 -3.139196 5.035869 27.07347 1.14868 -0.1908136 -10.33988 6.966922 0.3201193 -13.22306 9.37082 86.8585 18.03813 -10.14248 -0 0 12.28469 -17.21796 8.908264 7.308657 3.46287 -14.66752 -4.164559 -87.53614 28.09964 9.443467 0 0 -9.403577 -2.516223 13.28898 15.02939
2346.692 -1.44118 1135.978 12.48418 0.2752833 84.40198 2.342 1.06015 4.01847 -0 36.79622 -0 -2.927408 -11.10654 -9.652819 -3.526764 -1.520839 -8.749071 -0 38.94009 -0 -5.786091 -10.31483 18.84973 -2.505075 2.141154 3.444542 0.02346067 7.134055 -3.223396 4.837009 26.94766 1.27286 0.06085987 -10.65826 6.640548 1.172702 -13.37974 9.787584 85.85819 19.44425 -9.418203 -0 0 12.13354 -17.79061 9.181361 8.387167 3.184149 -14.88318 -4.407654 -87.88246 27.64871 10.48528 0 0 -9.102174 -2.820989 13.91035 15.60051
2352.231 -0.5737542 1136.548 11.70266 0.2443831 84.32035 2.308437 -0.5548362 3.530953 -0 37.53278 -0 -3.493727 -9.071792 -9.41246 -3.68763 -1.316456 -8.906192 -0 36.47461 -0 -4.461442 -10.74623 18.64439 -2.782962 2.042794 3.165501 0.2318678 7.280884 -3.387354 4.676444 26.86473 1.432995 0.2725333 -11.11725 6.454979 1.716379 -13.40015 10.08307 85.46163 20.42965 -9.230976 -0 0 11.552 -18.16448 9.311971 9.218255 3.025093 -15.1955 -4.708355 -88.05031 27.26753 11.06188 0 0 -9.03371 -2.872631 14.56436 15.89352
2357.652 0.1922806 1137.144 11.11907 0.06017483 84.29532 2.487861 -3.187854 3.011985 -0 37.54198 -0 -4.364959 -7.150163 -9.330371 -3.734703 0.1696012 -9.166164 -0 34.41753 -0 -3.487112 -11.33835 18.31413 -2.821757 2.064641 2.617718 0.4805449 7.318796 -3.581492 4.595207 26.89046 1.559706 0.4037224 -11.63171 6.402048 1.925862 -13.25274 10.24907 85.61708 20.87235 -9.517753 -0 0 10.58686 -18.21139 9.275719 9.713761 2.969627 -15.55214 -5.055541 -88.07727 27.07496 11.11792 0 0 -9.191061 -2.753678 15.35263 15.97214
2362.949 0.816106 1137.837 10.59104 -0.2899441 84.27 2.924785 -6.732131 2.483435 -0 36.14767 -0 -5.56415 -5.864399 -9.367206 -3.593525 2.635098 -9.5465 -0 33.11676 -0 -2.9597 -11.99849 17.75173 -2.619069 2.19696 1.842075 0.8221589 7.147619 -3.786941 4.6054 27.03072 1.611293 0.4486323 -12.17703 6.445524 1.899929 -12.88163 10.29803 86.08578 20.86408 -10.18678 -0 0 9.324454 -17.80674 9.117978 9.835745 2.990255 -15.88239 -5.397125 -88.04742 27.23106 10.69539 0 0 -9.545584 -2.65306 16.31166 16.01572
